<?xml version="1.0" standalone="no"?>
<!DOCTYPE svg PUBLIC "-//W3C//DTD SVG 20010904//EN"
 "http://www.w3.org/TR/2001/REC-SVG-20010904/DTD/svg10.dtd">
<svg version="1.0" xmlns="http://www.w3.org/2000/svg"
 width="260.000000pt" height="260.000000pt" viewBox="0 0 260.000000 260.000000"
 preserveAspectRatio="xMidYMid meet">
<metadata>
Created by potrace 1.14, written by Peter Selinger 2001-2017
</metadata>
<g transform="translate(0.000000,260.000000) scale(0.100000,-0.100000)"
fill="#000000" stroke="none">
<path d="M511 2225 c-12 -35 -30 -106 -32 -120 0 -5 -5 -17 -10 -26 -9 -17
-21 -71 -23 -103 -1 -19 9 -20 309 -20 l310 -1 3 -870 2 -870 178 0 177 0 0
1020 0 1020 -452 0 -453 1 -9 -31z"/>
<path d="M1561 2110 c-22 -81 -41 -148 -41 -151 0 -7 598 -4 605 2 3 4 7 15
10 25 2 11 18 66 35 124 17 58 33 114 35 125 5 20 1 21 -299 21 l-304 0 -41
-146z"/>
</g>
</svg>
